<svg width="217" height="15" viewBox="0 0 217 15" fill="none" xmlns="http://www.w3.org/2000/svg">
<path d="M5.70401 11.371C4.99001 11.371 4.31801 11.238 3.68801 10.972C3.05801 10.7013 2.50501 10.328 2.02901 9.852C1.55301 9.376 1.17967 8.823 0.909008 8.193C0.638341 7.563 0.503008 6.88867 0.503008 6.17C0.503008 5.45133 0.638341 4.777 0.909008 4.147C1.17967 3.517 1.55301 2.964 2.02901 2.488C2.50501 2.012 3.05801 1.641 3.68801 1.375C4.31801 1.10433 4.99001 0.968999 5.70401 0.968999C6.42734 0.968999 7.10167 1.10433 7.72701 1.375C8.35701 1.641 8.91001 2.012 9.38601 2.488C9.86201 2.964 10.2353 3.517 10.506 4.147C10.7767 4.777 10.912 5.45133 10.912 6.17C10.912 6.88867 10.7767 7.563 10.506 8.193C10.2353 8.823 9.86201 9.376 9.38601 9.852C8.91001 10.328 8.35701 10.7013 7.72701 10.972C7.10167 11.238 6.42734 11.371 5.70401 11.371ZM5.76701 9.117C5.34234 9.117 4.96201 9.04467 4.62601 8.9C4.29001 8.75533 3.99601 8.52433 3.74401 8.207C3.50134 7.899 3.33334 7.56767 3.24001 7.213C3.15134 6.85833 3.10701 6.50367 3.10701 6.149C3.11167 5.785 3.16067 5.428 3.25401 5.078C3.35201 4.728 3.51534 4.40833 3.74401 4.119C3.99601 3.80633 4.29234 3.57533 4.63301 3.426C4.97367 3.27667 5.36567 3.202 5.80901 3.202C6.06101 3.202 6.29901 3.23 6.52301 3.286C6.74701 3.33733 6.96867 3.42833 7.18801 3.559C7.41201 3.699 7.61034 3.874 7.78301 4.084C7.95567 4.294 8.07934 4.53667 8.15401 4.812L7.29301 5.071C7.23701 4.92633 7.15767 4.78633 7.05501 4.651C6.95234 4.51567 6.83334 4.399 6.69801 4.301C6.56734 4.20767 6.42034 4.14 6.25701 4.098C6.09834 4.05133 5.93734 4.028 5.77401 4.028C5.50334 4.028 5.25601 4.084 5.03201 4.196C4.80801 4.30333 4.61667 4.455 4.45801 4.651C4.29934 4.85633 4.18967 5.092 4.12901 5.358C4.06834 5.61933 4.03801 5.88067 4.03801 6.142C4.03801 6.42667 4.07067 6.702 4.13601 6.968C4.20601 7.234 4.31334 7.465 4.45801 7.661C4.60734 7.86633 4.79401 8.02267 5.01801 8.13C5.24667 8.23733 5.49867 8.291 5.77401 8.291C6.13801 8.291 6.45067 8.20233 6.71201 8.025C6.84734 7.927 6.95934 7.81733 7.04801 7.696C7.13667 7.57467 7.21134 7.43933 7.27201 7.29L8.15401 7.528C8.05134 7.794 7.92067 8.025 7.76201 8.221C7.60334 8.417 7.43767 8.57567 7.26501 8.697C7.05501 8.837 6.82867 8.942 6.58601 9.012C6.34801 9.082 6.07501 9.117 5.76701 9.117ZM5.70401 10.37C6.28734 10.37 6.83101 10.2627 7.33501 10.048C7.83901 9.82867 8.28234 9.52767 8.66501 9.145C9.05234 8.75767 9.35334 8.30967 9.56801 7.801C9.78734 7.28767 9.89701 6.74167 9.89701 6.163C9.89701 5.57967 9.78734 5.036 9.56801 4.532C9.35334 4.028 9.05234 3.58467 8.66501 3.202C8.28234 2.81467 7.83901 2.51367 7.33501 2.299C6.83101 2.07967 6.28734 1.97 5.70401 1.97C5.12534 1.97 4.57934 2.07967 4.06601 2.299C3.55734 2.51367 3.10934 2.81467 2.72201 3.202C2.33934 3.58467 2.03834 4.028 1.81901 4.532C1.60434 5.036 1.49701 5.57967 1.49701 6.163C1.49701 6.74167 1.60434 7.28767 1.81901 7.801C2.03834 8.30967 2.33934 8.75767 2.72201 9.145C3.10934 9.52767 3.55734 9.82867 4.06601 10.048C4.57934 10.2627 5.12534 10.37 5.70401 10.37ZM14.8377 10.993L14.8447 10.055L19.4017 5.939C19.7937 5.58433 20.0527 5.24833 20.1787 4.931C20.3094 4.609 20.3747 4.273 20.3747 3.923C20.3747 3.50767 20.2767 3.132 20.0807 2.796C19.8847 2.46 19.621 2.194 19.2897 1.998C18.9584 1.79733 18.5874 1.697 18.1767 1.697C17.7474 1.697 17.3647 1.79967 17.0287 2.005C16.6927 2.21033 16.4267 2.481 16.2307 2.817C16.0394 3.153 15.946 3.51933 15.9507 3.916H14.9007C14.9007 3.30467 15.0454 2.75633 15.3347 2.271C15.624 1.78567 16.016 1.40533 16.5107 1.13C17.0054 0.85 17.5654 0.71 18.1907 0.71C18.802 0.71 19.3504 0.854666 19.8357 1.144C20.3257 1.42867 20.7107 1.816 20.9907 2.306C21.2754 2.79133 21.4177 3.33267 21.4177 3.93C21.4177 4.35 21.3664 4.721 21.2637 5.043C21.1657 5.36033 21.0094 5.65667 20.7947 5.932C20.5847 6.20267 20.3164 6.48267 19.9897 6.772L15.9437 10.426L15.7827 10.006H21.4177V10.993H14.8377ZM26.3921 11.21C25.7714 11.21 25.2114 11.0653 24.7121 10.776C24.2174 10.4867 23.8254 10.0947 23.5361 9.6C23.2467 9.10067 23.1021 8.54067 23.1021 7.92V4C23.1021 3.37933 23.2467 2.82167 23.5361 2.327C23.8254 1.82767 24.2174 1.43333 24.7121 1.144C25.2114 0.854666 25.7714 0.71 26.3921 0.71C27.0127 0.71 27.5704 0.854666 28.0651 1.144C28.5644 1.43333 28.9587 1.82767 29.2481 2.327C29.5374 2.82167 29.6821 3.37933 29.6821 4V7.92C29.6821 8.54067 29.5374 9.10067 29.2481 9.6C28.9587 10.0947 28.5644 10.4867 28.0651 10.776C27.5704 11.0653 27.0127 11.21 26.3921 11.21ZM26.3921 10.216C26.8074 10.216 27.1854 10.1157 27.5261 9.915C27.8667 9.70967 28.1374 9.43667 28.3381 9.096C28.5387 8.75533 28.6391 8.37967 28.6391 7.969V3.951C28.6391 3.53567 28.5387 3.15767 28.3381 2.817C28.1374 2.47633 27.8667 2.20567 27.5261 2.005C27.1854 1.79967 26.8074 1.697 26.3921 1.697C25.9767 1.697 25.5987 1.79967 25.2581 2.005C24.9174 2.20567 24.6467 2.47633 24.4461 2.817C24.2454 3.15767 24.1451 3.53567 24.1451 3.951V7.969C24.1451 8.37967 24.2454 8.75533 24.4461 9.096C24.6467 9.43667 24.9174 9.70967 25.2581 9.915C25.5987 10.1157 25.9767 10.216 26.3921 10.216ZM31.367 10.993L31.374 10.055L35.931 5.939C36.323 5.58433 36.582 5.24833 36.708 4.931C36.8387 4.609 36.904 4.273 36.904 3.923C36.904 3.50767 36.806 3.132 36.61 2.796C36.414 2.46 36.1503 2.194 35.819 1.998C35.4877 1.79733 35.1167 1.697 34.706 1.697C34.2767 1.697 33.894 1.79967 33.558 2.005C33.222 2.21033 32.956 2.481 32.76 2.817C32.5687 3.153 32.4753 3.51933 32.48 3.916H31.43C31.43 3.30467 31.5747 2.75633 31.864 2.271C32.1533 1.78567 32.5453 1.40533 33.04 1.13C33.5347 0.85 34.0947 0.71 34.72 0.71C35.3313 0.71 35.8797 0.854666 36.365 1.144C36.855 1.42867 37.24 1.816 37.52 2.306C37.8047 2.79133 37.947 3.33267 37.947 3.93C37.947 4.35 37.8957 4.721 37.793 5.043C37.695 5.36033 37.5387 5.65667 37.324 5.932C37.114 6.20267 36.8457 6.48267 36.519 6.772L32.473 10.426L32.312 10.006H37.947V10.993H31.367ZM42.6064 11.21C42.0837 11.21 41.6007 11.1027 41.1574 10.888C40.714 10.6733 40.336 10.377 40.0234 9.999C39.7107 9.621 39.4867 9.187 39.3514 8.697L40.3384 8.431C40.427 8.795 40.588 9.11 40.8214 9.376C41.0547 9.63733 41.3277 9.84033 41.6404 9.985C41.9577 10.1297 42.289 10.202 42.6344 10.202C43.0824 10.202 43.4837 10.0947 43.8384 9.88C44.1977 9.66067 44.4824 9.37133 44.6924 9.012C44.9024 8.65267 45.0074 8.25833 45.0074 7.829C45.0074 7.38567 44.8977 6.98667 44.6784 6.632C44.459 6.27267 44.1697 5.988 43.8104 5.778C43.451 5.568 43.059 5.463 42.6344 5.463C42.1584 5.463 41.7477 5.568 41.4024 5.778C41.057 5.98333 40.7817 6.24233 40.5764 6.555L39.6384 6.163L39.9464 0.92H45.3294V1.907H40.4014L40.9124 1.424L40.6394 5.897L40.3804 5.554C40.6697 5.22267 41.0197 4.96367 41.4304 4.777C41.841 4.59033 42.2727 4.497 42.7254 4.497C43.346 4.497 43.906 4.64633 44.4054 4.945C44.9047 5.239 45.3014 5.638 45.5954 6.142C45.8894 6.646 46.0364 7.20833 46.0364 7.829C46.0364 8.445 45.88 9.00967 45.5674 9.523C45.2547 10.0317 44.8394 10.44 44.3214 10.748C43.8034 11.056 43.2317 11.21 42.6064 11.21ZM54.0142 11.21C53.3095 11.21 52.6748 11.0933 52.1102 10.86C51.5502 10.622 51.0858 10.286 50.7172 9.852C50.3532 9.418 50.1152 8.90233 50.0032 8.305L51.0532 8.13C51.2212 8.78333 51.5758 9.29667 52.1172 9.67C52.6585 10.0387 53.3048 10.223 54.0562 10.223C54.5508 10.223 54.9942 10.146 55.3862 9.992C55.7782 9.83333 56.0862 9.60933 56.3102 9.32C56.5342 9.03067 56.6462 8.68767 56.6462 8.291C56.6462 8.02967 56.5995 7.808 56.5062 7.626C56.4128 7.43933 56.2892 7.28533 56.1352 7.164C55.9812 7.04267 55.8132 6.94233 55.6312 6.863C55.4492 6.779 55.2718 6.71133 55.0992 6.66L52.5442 5.897C52.2362 5.80833 51.9515 5.69633 51.6902 5.561C51.4288 5.421 51.2002 5.25533 51.0042 5.064C50.8128 4.868 50.6635 4.63933 50.5562 4.378C50.4488 4.11667 50.3952 3.818 50.3952 3.482C50.3952 2.91267 50.5445 2.42033 50.8432 2.005C51.1418 1.58967 51.5502 1.27 52.0682 1.046C52.5862 0.822 53.1765 0.712333 53.8392 0.716999C54.5112 0.716999 55.1108 0.835999 55.6382 1.074C56.1702 1.312 56.6088 1.65267 56.9542 2.096C57.2995 2.53467 57.5282 3.055 57.6402 3.657L56.5622 3.853C56.4922 3.41433 56.3312 3.034 56.0792 2.712C55.8272 2.39 55.5052 2.14267 55.1132 1.97C54.7258 1.79267 54.2988 1.70167 53.8322 1.697C53.3795 1.697 52.9758 1.774 52.6212 1.928C52.2712 2.07733 51.9935 2.28267 51.7882 2.544C51.5828 2.80533 51.4802 3.104 51.4802 3.44C51.4802 3.78067 51.5735 4.05367 51.7602 4.259C51.9515 4.46433 52.1848 4.62533 52.4602 4.742C52.7402 4.85867 53.0108 4.95433 53.2722 5.029L55.2462 5.61C55.4515 5.666 55.6918 5.74767 55.9672 5.855C56.2472 5.95767 56.5178 6.107 56.7792 6.303C57.0452 6.49433 57.2645 6.74633 57.4372 7.059C57.6098 7.37167 57.6962 7.76833 57.6962 8.249C57.6962 8.71567 57.6028 9.13333 57.4162 9.502C57.2342 9.87067 56.9752 10.181 56.6392 10.433C56.3078 10.685 55.9182 10.8763 55.4702 11.007C55.0268 11.1423 54.5415 11.21 54.0142 11.21ZM59.2811 2.005V0.85H60.3101V2.005H59.2811ZM59.2811 11V3.44H60.3101V11H59.2811ZM62.5487 11V0.71H63.5777V11H62.5487ZM65.8163 2.005V0.85H66.8453V2.005H65.8163ZM65.8163 11V3.44H66.8453V11H65.8163ZM72.0799 11.21C71.3192 11.21 70.6752 11.0397 70.1479 10.699C69.6205 10.3583 69.2192 9.88933 68.9439 9.292C68.6732 8.69 68.5332 7.99933 68.5239 7.22C68.5332 6.42667 68.6779 5.73133 68.9579 5.134C69.2379 4.532 69.6415 4.06533 70.1689 3.734C70.6962 3.398 71.3355 3.23 72.0869 3.23C72.8522 3.23 73.5172 3.41667 74.0819 3.79C74.6512 4.16333 75.0409 4.67433 75.2509 5.323L74.2429 5.645C74.0655 5.19233 73.7832 4.84233 73.3959 4.595C73.0132 4.343 72.5745 4.217 72.0799 4.217C71.5245 4.217 71.0649 4.34533 70.7009 4.602C70.3369 4.854 70.0662 5.20633 69.8889 5.659C69.7115 6.11167 69.6205 6.632 69.6159 7.22C69.6252 8.12533 69.8352 8.85333 70.2459 9.404C70.6565 9.95 71.2679 10.223 72.0799 10.223C72.5932 10.223 73.0295 10.1063 73.3889 9.873C73.7529 9.635 74.0282 9.28967 74.2149 8.837L75.2509 9.145C74.9709 9.817 74.5602 10.3303 74.0189 10.685C73.4775 11.035 72.8312 11.21 72.0799 11.21ZM79.6477 11.21C78.8964 11.21 78.2547 11.0397 77.7227 10.699C77.1907 10.3583 76.7824 9.887 76.4977 9.285C76.2131 8.683 76.0707 7.99233 76.0707 7.213C76.0707 6.41967 76.2154 5.72433 76.5047 5.127C76.7941 4.52967 77.2047 4.06533 77.7367 3.734C78.2734 3.398 78.9104 3.23 79.6477 3.23C80.4037 3.23 81.0477 3.40033 81.5797 3.741C82.1164 4.077 82.5247 4.546 82.8047 5.148C83.0894 5.74533 83.2317 6.43367 83.2317 7.213C83.2317 8.00633 83.0894 8.704 82.8047 9.306C82.5201 9.90333 82.1094 10.37 81.5727 10.706C81.0361 11.042 80.3944 11.21 79.6477 11.21ZM79.6477 10.223C80.4877 10.223 81.1131 9.94533 81.5237 9.39C81.9344 8.83 82.1397 8.10433 82.1397 7.213C82.1397 6.29833 81.9321 5.57033 81.5167 5.029C81.1061 4.48767 80.4831 4.217 79.6477 4.217C79.0831 4.217 78.6164 4.34533 78.2477 4.602C77.8837 4.854 77.6107 5.20633 77.4287 5.659C77.2514 6.107 77.1627 6.625 77.1627 7.213C77.1627 8.123 77.3727 8.85333 77.7927 9.404C78.2127 9.95 78.8311 10.223 79.6477 10.223ZM90.2359 11V7.143C90.2359 6.723 90.1962 6.338 90.1169 5.988C90.0376 5.63333 89.9092 5.32533 89.7319 5.064C89.5592 4.798 89.3329 4.59267 89.0529 4.448C88.7776 4.30333 88.4416 4.231 88.0449 4.231C87.6809 4.231 87.3589 4.294 87.0789 4.42C86.8036 4.546 86.5702 4.728 86.3789 4.966C86.1922 5.19933 86.0499 5.484 85.9519 5.82C85.8539 6.156 85.8049 6.53867 85.8049 6.968L85.0769 6.807C85.0769 6.03233 85.2122 5.38133 85.4829 4.854C85.7536 4.32667 86.1269 3.92767 86.6029 3.657C87.0789 3.38633 87.6249 3.251 88.2409 3.251C88.6936 3.251 89.0879 3.321 89.4239 3.461C89.7646 3.601 90.0516 3.79 90.2849 4.028C90.5229 4.266 90.7142 4.539 90.8589 4.847C91.0036 5.15033 91.1086 5.47467 91.1739 5.82C91.2392 6.16067 91.2719 6.50133 91.2719 6.842V11H90.2359ZM84.7689 11V3.44H85.6999V5.302H85.8049V11H84.7689ZM93.2844 11V9.803H94.4814V11H93.2844ZM98.7458 11L102.218 0.92H103.583L107.055 11H105.984L102.687 1.494H103.093L99.8168 11H98.7458ZM100.293 8.557V7.591H105.501V8.557H100.293ZM108.459 11V0.71H109.488V11H108.459ZM111.726 11V0.71H112.755V11H111.726ZM117.657 11V3.44H118.581V5.26L118.399 5.022C118.483 4.798 118.592 4.59267 118.728 4.406C118.863 4.21467 119.01 4.05833 119.169 3.937C119.365 3.76433 119.593 3.63367 119.855 3.545C120.116 3.45167 120.38 3.398 120.646 3.384C120.912 3.36533 121.154 3.384 121.374 3.44V4.406C121.098 4.336 120.797 4.31967 120.471 4.357C120.144 4.39433 119.843 4.525 119.568 4.749C119.316 4.945 119.127 5.18067 119.001 5.456C118.875 5.72667 118.791 6.016 118.749 6.324C118.707 6.62733 118.686 6.92833 118.686 7.227V11H117.657ZM122.842 2.005V0.85H123.871V2.005H122.842ZM122.842 11V3.44H123.871V11H122.842ZM128.972 14.57C128.585 14.57 128.202 14.5117 127.824 14.395C127.451 14.283 127.106 14.1033 126.788 13.856C126.471 13.6133 126.205 13.296 125.99 12.904L126.921 12.386C127.131 12.806 127.425 13.107 127.803 13.289C128.186 13.4757 128.576 13.569 128.972 13.569C129.518 13.569 129.959 13.4663 130.295 13.261C130.636 13.0603 130.883 12.7617 131.037 12.365C131.191 11.9683 131.266 11.4737 131.261 10.881V8.865H131.38V3.44H132.297V10.895C132.297 11.1097 132.29 11.315 132.276 11.511C132.267 11.7117 132.246 11.9077 132.213 12.099C132.125 12.6637 131.94 13.128 131.66 13.492C131.385 13.856 131.021 14.1267 130.568 14.304C130.12 14.4813 129.588 14.57 128.972 14.57ZM128.902 11.21C128.198 11.21 127.596 11.035 127.096 10.685C126.597 10.3303 126.214 9.852 125.948 9.25C125.682 8.648 125.549 7.969 125.549 7.213C125.549 6.46167 125.68 5.785 125.941 5.183C126.207 4.581 126.588 4.105 127.082 3.755C127.577 3.405 128.17 3.23 128.86 3.23C129.57 3.23 130.167 3.40267 130.652 3.748C131.138 4.09333 131.504 4.567 131.751 5.169C132.003 5.76633 132.129 6.44767 132.129 7.213C132.129 7.96433 132.006 8.64333 131.758 9.25C131.511 9.852 131.147 10.3303 130.666 10.685C130.186 11.035 129.598 11.21 128.902 11.21ZM129.007 10.251C129.544 10.251 129.987 10.1203 130.337 9.859C130.687 9.59767 130.949 9.23833 131.121 8.781C131.294 8.319 131.38 7.79633 131.38 7.213C131.38 6.62033 131.294 6.09767 131.121 5.645C130.949 5.18767 130.687 4.83067 130.337 4.574C129.992 4.31733 129.556 4.189 129.028 4.189C128.487 4.189 128.039 4.322 127.684 4.588C127.33 4.854 127.066 5.21567 126.893 5.673C126.725 6.13033 126.641 6.64367 126.641 7.213C126.641 7.787 126.728 8.305 126.9 8.767C127.078 9.22433 127.341 9.586 127.691 9.852C128.041 10.118 128.48 10.251 129.007 10.251ZM139.714 11V7.143C139.714 6.723 139.675 6.338 139.595 5.988C139.516 5.63333 139.388 5.32533 139.21 5.064C139.038 4.798 138.811 4.59267 138.531 4.448C138.256 4.30333 137.92 4.231 137.523 4.231C137.159 4.231 136.837 4.294 136.557 4.42C136.282 4.546 136.049 4.728 135.857 4.966C135.671 5.19933 135.528 5.484 135.43 5.82C135.332 6.156 135.283 6.53867 135.283 6.968L134.555 6.807C134.555 6.03233 134.691 5.38133 134.961 4.854C135.232 4.32667 135.605 3.92767 136.081 3.657C136.557 3.38633 137.103 3.251 137.719 3.251C138.172 3.251 138.566 3.321 138.902 3.461C139.243 3.601 139.53 3.79 139.763 4.028C140.001 4.266 140.193 4.539 140.337 4.847C140.482 5.15033 140.587 5.47467 140.652 5.82C140.718 6.16067 140.75 6.50133 140.75 6.842V11H139.714ZM134.247 11V0.92H135.178V6.611H135.283V11H134.247ZM146.683 11C146.258 11.0887 145.838 11.1237 145.423 11.105C145.012 11.0863 144.644 10.9977 144.317 10.839C143.995 10.6803 143.75 10.433 143.582 10.097C143.447 9.817 143.372 9.53467 143.358 9.25C143.349 8.96067 143.344 8.63167 143.344 8.263V1.34H144.366V8.221C144.366 8.53833 144.368 8.80433 144.373 9.019C144.382 9.229 144.431 9.41567 144.52 9.579C144.688 9.89167 144.954 10.0783 145.318 10.139C145.687 10.1997 146.142 10.1857 146.683 10.097V11ZM141.727 4.322V3.44H146.683V4.322H141.727ZM150.993 11.203C150.107 11.203 149.376 11.0117 148.802 10.629C148.233 10.2463 147.883 9.71433 147.752 9.033L148.802 8.858C148.914 9.28733 149.169 9.63033 149.565 9.887C149.967 10.139 150.461 10.265 151.049 10.265C151.623 10.265 152.076 10.146 152.407 9.908C152.739 9.66533 152.904 9.33633 152.904 8.921C152.904 8.68767 152.851 8.49867 152.743 8.354C152.641 8.20467 152.428 8.067 152.106 7.941C151.784 7.815 151.304 7.66567 150.664 7.493C149.978 7.30633 149.442 7.11967 149.054 6.933C148.667 6.74633 148.392 6.53167 148.228 6.289C148.065 6.04167 147.983 5.74067 147.983 5.386C147.983 4.95667 148.105 4.581 148.347 4.259C148.59 3.93233 148.926 3.68033 149.355 3.503C149.785 3.321 150.284 3.23 150.853 3.23C151.423 3.23 151.931 3.32333 152.379 3.51C152.832 3.692 153.196 3.94867 153.471 4.28C153.747 4.61133 153.91 4.99633 153.961 5.435L152.911 5.624C152.841 5.18067 152.62 4.83067 152.246 4.574C151.878 4.31267 151.409 4.17733 150.839 4.168C150.303 4.154 149.866 4.25667 149.53 4.476C149.194 4.69067 149.026 4.97767 149.026 5.337C149.026 5.53767 149.087 5.71033 149.208 5.855C149.33 5.995 149.549 6.128 149.866 6.254C150.188 6.38 150.646 6.51767 151.238 6.667C151.934 6.84433 152.48 7.031 152.876 7.227C153.273 7.423 153.555 7.654 153.723 7.92C153.891 8.186 153.975 8.515 153.975 8.907C153.975 9.621 153.709 10.1833 153.177 10.594C152.65 11 151.922 11.203 150.993 11.203ZM158.331 11V3.44H159.255V5.26L159.073 5.022C159.157 4.798 159.266 4.59267 159.402 4.406C159.537 4.21467 159.684 4.05833 159.843 3.937C160.039 3.76433 160.267 3.63367 160.529 3.545C160.79 3.45167 161.054 3.398 161.32 3.384C161.586 3.36533 161.828 3.384 162.048 3.44V4.406C161.772 4.336 161.471 4.31967 161.145 4.357C160.818 4.39433 160.517 4.525 160.242 4.749C159.99 4.945 159.801 5.18067 159.675 5.456C159.549 5.72667 159.465 6.016 159.423 6.324C159.381 6.62733 159.36 6.92833 159.36 7.227V11H158.331ZM166.438 11.21C165.7 11.21 165.061 11.0467 164.52 10.72C163.983 10.3933 163.565 9.93367 163.267 9.341C162.968 8.74833 162.819 8.053 162.819 7.255C162.819 6.429 162.966 5.715 163.26 5.113C163.554 4.511 163.967 4.04667 164.499 3.72C165.035 3.39333 165.668 3.23 166.396 3.23C167.142 3.23 167.779 3.40267 168.307 3.748C168.834 4.08867 169.233 4.57867 169.504 5.218C169.774 5.85733 169.898 6.62033 169.875 7.507H168.825V7.143C168.806 6.163 168.594 5.42333 168.188 4.924C167.786 4.42467 167.198 4.175 166.424 4.175C165.612 4.175 164.989 4.43867 164.555 4.966C164.125 5.49333 163.911 6.24467 163.911 7.22C163.911 8.172 164.125 8.91167 164.555 9.439C164.989 9.96167 165.602 10.223 166.396 10.223C166.937 10.223 167.408 10.0993 167.81 9.852C168.216 9.6 168.535 9.23833 168.769 8.767L169.728 9.138C169.429 9.796 168.988 10.307 168.405 10.671C167.826 11.0303 167.17 11.21 166.438 11.21ZM163.547 7.507V6.646H169.322V7.507H163.547ZM174.249 11.203C173.363 11.203 172.632 11.0117 172.058 10.629C171.489 10.2463 171.139 9.71433 171.008 9.033L172.058 8.858C172.17 9.28733 172.425 9.63033 172.821 9.887C173.223 10.139 173.717 10.265 174.305 10.265C174.879 10.265 175.332 10.146 175.663 9.908C175.995 9.66533 176.16 9.33633 176.16 8.921C176.16 8.68767 176.107 8.49867 175.999 8.354C175.897 8.20467 175.684 8.067 175.362 7.941C175.04 7.815 174.56 7.66567 173.92 7.493C173.234 7.30633 172.698 7.11967 172.31 6.933C171.923 6.74633 171.648 6.53167 171.484 6.289C171.321 6.04167 171.239 5.74067 171.239 5.386C171.239 4.95667 171.361 4.581 171.603 4.259C171.846 3.93233 172.182 3.68033 172.611 3.503C173.041 3.321 173.54 3.23 174.109 3.23C174.679 3.23 175.187 3.32333 175.635 3.51C176.088 3.692 176.452 3.94867 176.727 4.28C177.003 4.61133 177.166 4.99633 177.217 5.435L176.167 5.624C176.097 5.18067 175.876 4.83067 175.502 4.574C175.134 4.31267 174.665 4.17733 174.095 4.168C173.559 4.154 173.122 4.25667 172.786 4.476C172.45 4.69067 172.282 4.97767 172.282 5.337C172.282 5.53767 172.343 5.71033 172.464 5.855C172.586 5.995 172.805 6.128 173.122 6.254C173.444 6.38 173.902 6.51767 174.494 6.667C175.19 6.84433 175.736 7.031 176.132 7.227C176.529 7.423 176.811 7.654 176.979 7.92C177.147 8.186 177.231 8.515 177.231 8.907C177.231 9.621 176.965 10.1833 176.433 10.594C175.906 11 175.178 11.203 174.249 11.203ZM181.983 11.21C181.245 11.21 180.606 11.0467 180.065 10.72C179.528 10.3933 179.11 9.93367 178.812 9.341C178.513 8.74833 178.364 8.053 178.364 7.255C178.364 6.429 178.511 5.715 178.805 5.113C179.099 4.511 179.512 4.04667 180.044 3.72C180.58 3.39333 181.213 3.23 181.941 3.23C182.687 3.23 183.324 3.40267 183.852 3.748C184.379 4.08867 184.778 4.57867 185.049 5.218C185.319 5.85733 185.443 6.62033 185.42 7.507H184.37V7.143C184.351 6.163 184.139 5.42333 183.733 4.924C183.331 4.42467 182.743 4.175 181.969 4.175C181.157 4.175 180.534 4.43867 180.1 4.966C179.67 5.49333 179.456 6.24467 179.456 7.22C179.456 8.172 179.67 8.91167 180.1 9.439C180.534 9.96167 181.147 10.223 181.941 10.223C182.482 10.223 182.953 10.0993 183.355 9.852C183.761 9.6 184.08 9.23833 184.314 8.767L185.273 9.138C184.974 9.796 184.533 10.307 183.95 10.671C183.371 11.0303 182.715 11.21 181.983 11.21ZM179.092 7.507V6.646H184.867V7.507H179.092ZM186.973 11V3.44H187.897V5.26L187.715 5.022C187.799 4.798 187.909 4.59267 188.044 4.406C188.179 4.21467 188.326 4.05833 188.485 3.937C188.681 3.76433 188.91 3.63367 189.171 3.545C189.432 3.45167 189.696 3.398 189.962 3.384C190.228 3.36533 190.471 3.384 190.69 3.44V4.406C190.415 4.336 190.114 4.31967 189.787 4.357C189.46 4.39433 189.159 4.525 188.884 4.749C188.632 4.945 188.443 5.18067 188.317 5.456C188.191 5.72667 188.107 6.016 188.065 6.324C188.023 6.62733 188.002 6.92833 188.002 7.227V11H186.973ZM194.062 11L191.318 3.44H192.361L194.594 9.656L196.813 3.44H197.87L195.126 11H194.062ZM202.053 11.21C201.316 11.21 200.676 11.0467 200.135 10.72C199.598 10.3933 199.181 9.93367 198.882 9.341C198.583 8.74833 198.434 8.053 198.434 7.255C198.434 6.429 198.581 5.715 198.875 5.113C199.169 4.511 199.582 4.04667 200.114 3.72C200.651 3.39333 201.283 3.23 202.011 3.23C202.758 3.23 203.395 3.40267 203.922 3.748C204.449 4.08867 204.848 4.57867 205.119 5.218C205.39 5.85733 205.513 6.62033 205.49 7.507H204.44V7.143C204.421 6.163 204.209 5.42333 203.803 4.924C203.402 4.42467 202.814 4.175 202.039 4.175C201.227 4.175 200.604 4.43867 200.17 4.966C199.741 5.49333 199.526 6.24467 199.526 7.22C199.526 8.172 199.741 8.91167 200.17 9.439C200.604 9.96167 201.218 10.223 202.011 10.223C202.552 10.223 203.024 10.0993 203.425 9.852C203.831 9.6 204.151 9.23833 204.384 8.767L205.343 9.138C205.044 9.796 204.603 10.307 204.02 10.671C203.441 11.0303 202.786 11.21 202.053 11.21ZM199.162 7.507V6.646H204.937V7.507H199.162ZM209.976 11.21C209.272 11.21 208.67 11.035 208.17 10.685C207.671 10.3303 207.288 9.852 207.022 9.25C206.756 8.648 206.623 7.969 206.623 7.213C206.623 6.46167 206.754 5.785 207.015 5.183C207.281 4.581 207.662 4.105 208.156 3.755C208.651 3.405 209.244 3.23 209.934 3.23C210.644 3.23 211.241 3.40267 211.726 3.748C212.212 4.09333 212.578 4.567 212.825 5.169C213.077 5.76633 213.203 6.44767 213.203 7.213C213.203 7.96433 213.08 8.64333 212.832 9.25C212.585 9.852 212.221 10.3303 211.74 10.685C211.26 11.035 210.672 11.21 209.976 11.21ZM210.081 10.251C210.618 10.251 211.061 10.1203 211.411 9.859C211.761 9.59767 212.023 9.23833 212.195 8.781C212.368 8.319 212.454 7.79633 212.454 7.213C212.454 6.62033 212.368 6.09767 212.195 5.645C212.023 5.18767 211.761 4.83067 211.411 4.574C211.066 4.31733 210.63 4.189 210.102 4.189C209.561 4.189 209.113 4.322 208.758 4.588C208.404 4.854 208.14 5.21567 207.967 5.673C207.799 6.13033 207.715 6.64367 207.715 7.213C207.715 7.787 207.802 8.305 207.974 8.767C208.152 9.22433 208.415 9.586 208.765 9.852C209.115 10.118 209.554 10.251 210.081 10.251ZM212.454 11V5.309H212.342V0.92H213.378V11H212.454ZM215.538 11V9.803H216.735V11H215.538Z" fill="#9397AD"/>
</svg>
